{
	"asset":{
		"generator":"Khronos glTF Blender I/O v4.3.47",
		"version":"2.0"
	},
	"extensionsUsed":[
		"KHR_materials_emissive_strength"
	],
	"scene":0,
	"scenes":[
		{
			"name":"Scene",
			"nodes":[
				0,
				1,
				2
			]
		}
	],
	"nodes":[
		{
			"mesh":0,
			"name":"Classroom"
		},
		{
			"mesh":1,
			"name":"glass"
		},
		{
			"mesh":2,
			"name":"Lights"
		}
	],
	"materials":[
		{
			"doubleSided":true,
			"name":"BakedTextures",
			"pbrMetallicRoughness":{
				"baseColorTexture":{
					"index":0,
					"texCoord":1
				},
				"metallicFactor":0,
				"roughnessFactor":0.5
			}
		},
		{
			"doubleSided":true,
			"emissiveFactor":[
				1,
				1,
				1
			],
			"extensions":{
				"KHR_materials_emissive_strength":{
					"emissiveStrength":20
				}
			},
			"name":"Light",
			"pbrMetallicRoughness":{
				"baseColorFactor":[
					0,
					0,
					0,
					1
				]
			}
		}
	],
	"meshes":[
		{
			"name":"Cube.001",
			"primitives":[
				{
					"attributes":{
						"POSITION":0,
						"NORMAL":1,
						"TEXCOORD_0":2,
						"TEXCOORD_1":3
					},
					"indices":4,
					"material":0
				}
			]
		},
		{
			"name":"Cube.074",
			"primitives":[
				{
					"attributes":{
						"POSITION":5,
						"NORMAL":6,
						"TEXCOORD_0":7,
						"TEXCOORD_1":8
					},
					"indices":9,
					"material":0
				}
			]
		},
		{
			"name":"Cube.075",
			"primitives":[
				{
					"attributes":{
						"POSITION":10,
						"NORMAL":11,
						"TEXCOORD_0":12,
						"TEXCOORD_1":13
					},
					"indices":14,
					"material":1
				}
			]
		}
	],
	"textures":[
		{
			"sampler":0,
			"source":0
		}
	],
	"images":[
		{
			"mimeType":"image/jpeg",
			"name":"BakedTextures",
			"uri":"test/BakedTextures.jpg"
		}
	],
	"accessors":[
		{
			"bufferView":0,
			"componentType":5126,
			"count":71552,
			"max":[
				4.733088970184326,
				4.259081840515137,
				8.27525520324707
			],
			"min":[
				-4.6452460289001465,
				-0.019962072372436523,
				-3.71235990524292
			],
			"type":"VEC3"
		},
		{
			"bufferView":1,
			"componentType":5126,
			"count":71552,
			"type":"VEC3"
		},
		{
			"bufferView":2,
			"componentType":5126,
			"count":71552,
			"type":"VEC2"
		},
		{
			"bufferView":3,
			"componentType":5126,
			"count":71552,
			"type":"VEC2"
		},
		{
			"bufferView":4,
			"componentType":5125,
			"count":198318,
			"type":"SCALAR"
		},
		{
			"bufferView":5,
			"componentType":5126,
			"count":4,
			"max":[
				4.598086833953857,
				3.098724842071533,
				7.635280609130859
			],
			"min":[
				4.598086833953857,
				1.121793270111084,
				-2.9768009185791016
			],
			"type":"VEC3"
		},
		{
			"bufferView":6,
			"componentType":5126,
			"count":4,
			"type":"VEC3"
		},
		{
			"bufferView":7,
			"componentType":5126,
			"count":4,
			"type":"VEC2"
		},
		{
			"bufferView":8,
			"componentType":5126,
			"count":4,
			"type":"VEC2"
		},
		{
			"bufferView":9,
			"componentType":5123,
			"count":6,
			"type":"SCALAR"
		},
		{
			"bufferView":10,
			"componentType":5126,
			"count":720,
			"max":[
				3.507889747619629,
				4.215565204620361,
				6.928159236907959
			],
			"min":[
				-3.507504940032959,
				4.131494998931885,
				-2.25400972366333
			],
			"type":"VEC3"
		},
		{
			"bufferView":11,
			"componentType":5126,
			"count":720,
			"type":"VEC3"
		},
		{
			"bufferView":12,
			"componentType":5126,
			"count":720,
			"type":"VEC2"
		},
		{
			"bufferView":13,
			"componentType":5126,
			"count":720,
			"type":"VEC2"
		},
		{
			"bufferView":14,
			"componentType":5123,
			"count":1440,
			"type":"SCALAR"
		}
	],
	"bufferViews":[
		{
			"buffer":0,
			"byteLength":858624,
			"byteOffset":0,
			"target":34962
		},
		{
			"buffer":0,
			"byteLength":858624,
			"byteOffset":858624,
			"target":34962
		},
		{
			"buffer":0,
			"byteLength":572416,
			"byteOffset":1717248,
			"target":34962
		},
		{
			"buffer":0,
			"byteLength":572416,
			"byteOffset":2289664,
			"target":34962
		},
		{
			"buffer":0,
			"byteLength":793272,
			"byteOffset":2862080,
			"target":34963
		},
		{
			"buffer":0,
			"byteLength":48,
			"byteOffset":3655352,
			"target":34962
		},
		{
			"buffer":0,
			"byteLength":48,
			"byteOffset":3655400,
			"target":34962
		},
		{
			"buffer":0,
			"byteLength":32,
			"byteOffset":3655448,
			"target":34962
		},
		{
			"buffer":0,
			"byteLength":32,
			"byteOffset":3655480,
			"target":34962
		},
		{
			"buffer":0,
			"byteLength":12,
			"byteOffset":3655512,
			"target":34963
		},
		{
			"buffer":0,
			"byteLength":8640,
			"byteOffset":3655524,
			"target":34962
		},
		{
			"buffer":0,
			"byteLength":8640,
			"byteOffset":3664164,
			"target":34962
		},
		{
			"buffer":0,
			"byteLength":5760,
			"byteOffset":3672804,
			"target":34962
		},
		{
			"buffer":0,
			"byteLength":5760,
			"byteOffset":3678564,
			"target":34962
		},
		{
			"buffer":0,
			"byteLength":2880,
			"byteOffset":3684324,
			"target":34963
		}
	],
	"samplers":[
		{
			"magFilter":9729,
			"minFilter":9987
		}
	],
	"buffers":[
		{
			"byteLength":3687204,
			"uri":"untitled.bin"
		}
	]
}
